<mxfile host="app.diagrams.net" agent="Mozilla/5.0 (X11; Ubuntu; Linux x86_64; rv:132.0) Gecko/20100101 Firefox/132.0" version="24.8.6">
  <diagram name="Page-1" id="aKSwG9s0DcpZ0JjglzhW">
    <mxGraphModel dx="1364" dy="758" grid="1" gridSize="10" guides="1" tooltips="1" connect="1" arrows="1" fold="1" page="1" pageScale="1" pageWidth="850" pageHeight="1100" math="0" shadow="0">
      <root>
        <mxCell id="0" />
        <mxCell id="1" parent="0" />
        <mxCell id="Z_84n1_t8wGVNybtj0eF-1" value="Alice" style="rounded=1;whiteSpace=wrap;html=1;dashed=1;fillColor=#ffe6cc;strokeColor=#d79b00;" vertex="1" parent="1">
          <mxGeometry x="80" y="240" width="120" height="80" as="geometry" />
        </mxCell>
        <mxCell id="Z_84n1_t8wGVNybtj0eF-4" style="edgeStyle=orthogonalEdgeStyle;rounded=0;orthogonalLoop=1;jettySize=auto;html=1;exitX=0;exitY=0.75;exitDx=0;exitDy=0;entryX=1;entryY=0.75;entryDx=0;entryDy=0;dashed=1;" edge="1" parent="1" source="Z_84n1_t8wGVNybtj0eF-2" target="Z_84n1_t8wGVNybtj0eF-1">
          <mxGeometry relative="1" as="geometry" />
        </mxCell>
        <mxCell id="Z_84n1_t8wGVNybtj0eF-2" value="Bob" style="rounded=1;whiteSpace=wrap;html=1;dashed=1;fillColor=#e1d5e7;strokeColor=#9673a6;" vertex="1" parent="1">
          <mxGeometry x="600" y="240" width="120" height="80" as="geometry" />
        </mxCell>
        <mxCell id="Z_84n1_t8wGVNybtj0eF-3" value="" style="endArrow=classic;html=1;rounded=0;exitX=1;exitY=0.25;exitDx=0;exitDy=0;entryX=0;entryY=0.25;entryDx=0;entryDy=0;dashed=1;" edge="1" parent="1" source="Z_84n1_t8wGVNybtj0eF-1" target="Z_84n1_t8wGVNybtj0eF-2">
          <mxGeometry width="50" height="50" relative="1" as="geometry">
            <mxPoint x="400" y="420" as="sourcePoint" />
            <mxPoint x="450" y="370" as="targetPoint" />
          </mxGeometry>
        </mxCell>
        <mxCell id="Z_84n1_t8wGVNybtj0eF-5" value="puzzle_1, puzzle_2, ..., puzzle_n" style="text;html=1;align=center;verticalAlign=middle;whiteSpace=wrap;rounded=0;" vertex="1" parent="1">
          <mxGeometry x="310" y="230" width="200" height="30" as="geometry" />
        </mxCell>
        <mxCell id="Z_84n1_t8wGVNybtj0eF-6" value="x_j" style="text;html=1;align=center;verticalAlign=middle;whiteSpace=wrap;rounded=0;" vertex="1" parent="1">
          <mxGeometry x="380" y="270" width="60" height="30" as="geometry" />
        </mxCell>
      </root>
    </mxGraphModel>
  </diagram>
</mxfile>
